<svg xmlns="http://www.w3.org/2000/svg"
     viewBox="0 0 1024 1024"
     role="img"
     aria-labelledby="title">
  <title id="title">TapHound HoundMark</title>
  <path fill="#1B1D21" fill-rule="evenodd" clip-rule="evenodd" d="M228 702 350 582c31-31 40-59 36-90-6-50-42-81-86-100 45-20 77-47 112-80 40 6 79 26 104 62 16 21 37 31 64 34l70 13c10 2 15 11 12 22-8 35-29 57-60 68l-49 16c-29 9-49 29-62 58l-56 121H228Zm165-355c28 22 48 50 48 80-1 34-19 60-49 72 14-30 16-60 7-87-9-28-19-45-6-65Z"/>
  <circle cx="755" cy="443" r="24" fill="#FF5A1F"/>
  <path fill="#FF5A1F" d="M760 359a84 84 0 0 1 84 84 84 84 0 0 1-84 84v-30a54 54 0 0 0 54-54 54 54 0 0 0-54-54v-30Z"/>
</svg>
